<?xml version="1.0" standalone="no"?>
<!DOCTYPE svg PUBLIC "-//W3C//DTD SVG 20010904//EN"
 "http://www.w3.org/TR/2001/REC-SVG-20010904/DTD/svg10.dtd">
<svg version="1.0" xmlns="http://www.w3.org/2000/svg"
 width="900.000000pt" height="897.000000pt" viewBox="0 0 900.000000 897.000000"
 preserveAspectRatio="xMidYMid meet">

<g transform="translate(0.000000,897.000000) scale(0.100000,-0.100000)"
fill="#ffffff" stroke="none">
<path d="M2870 5260 l0 -1760 1180 0 1180 0 0 590 0 590 -269 0 -268 0 -5
-360 c-2 -198 -6 -361 -9 -362 -2 -2 -289 -2 -636 0 l-633 3 0 1304 0 1305
640 0 640 0 0 -360 0 -360 270 0 270 0 0 585 0 585 -1180 0 -1180 0 0 -1760z"/>
<path d="M5600 6285 l0 -735 -630 0 -630 0 0 350 0 350 -262 -2 -263 -3 -3
-977 -2 -978 265 0 265 0 2 348 3 347 625 0 625 0 3 -742 2 -743 285 0 285 0
0 1760 0 1760 -285 0 -285 0 0 -735z"/>
<path d="M2313 3076 c-12 -19 -19 -37 -16 -40 16 -16 53 -2 88 34 l39 40 -44
0 c-40 0 -47 -4 -67 -34z"/>
<path d="M4375 3006 c-91 -34 -136 -152 -104 -271 21 -76 76 -115 164 -115 72
0 127 27 149 75 9 19 14 40 11 45 -8 13 -75 13 -75 0 0 -36 -75 -63 -125 -44
-42 16 -61 144 -30 203 32 62 117 64 145 4 12 -27 21 -33 48 -33 21 0 35 6 39
17 8 21 -24 81 -57 105 -35 25 -115 32 -165 14z"/>
<path d="M7051 3008 c-88 -25 -125 -84 -126 -198 0 -125 48 -181 161 -188 88
-6 136 16 172 77 23 39 27 57 26 121 0 109 -37 167 -119 189 -47 13 -68 13
-114 -1z m93 -72 c38 -16 56 -55 56 -123 0 -106 -86 -160 -157 -99 -26 23 -28
29 -28 99 0 66 3 79 24 101 13 14 33 27 45 29 11 2 22 5 24 6 1 0 18 -5 36
-13z"/>
<path d="M1770 2815 l0 -195 40 0 40 0 0 80 0 80 75 0 75 0 0 -80 0 -80 40 0
40 0 0 195 0 195 -40 0 -40 0 0 -80 0 -81 -72 3 -73 3 -3 78 -3 77 -39 0 -40
0 0 -195z"/>
<path d="M2212 2818 l3 -193 128 -3 127 -3 0 36 0 35 -77 1 c-43 1 -81 1 -85
0 -5 0 -8 19 -8 44 l0 45 75 0 75 0 0 35 0 35 -75 0 -75 0 0 45 0 45 80 0 80
0 0 35 0 35 -125 0 -125 0 2 -192z"/>
<path d="M2580 2815 l0 -195 120 0 120 0 0 35 0 34 -77 3 -78 3 -3 158 -3 157
-39 0 -40 0 0 -195z"/>
<path d="M2930 2815 l0 -195 76 0 c103 0 159 16 199 56 59 59 71 186 25 262
-32 52 -87 72 -202 72 l-98 0 0 -195z m211 96 c26 -26 29 -36 29 -90 0 -52 -4
-65 -28 -92 -21 -24 -38 -32 -75 -36 l-47 -6 0 127 0 126 46 0 c37 0 51 -5 75
-29z"/>
<path d="M3370 2815 l0 -195 125 0 125 0 0 38 0 37 -61 -3 c-94 -6 -109 1
-109 48 l0 40 81 0 80 0 -3 33 -3 32 -77 3 -78 3 0 44 0 45 85 0 85 0 0 35 0
35 -125 0 -125 0 0 -195z"/>
<path d="M3730 2814 l0 -195 43 3 42 3 3 73 c3 67 4 72 25 72 17 0 30 -16 60
-75 l39 -75 44 0 c24 0 44 3 44 6 0 4 -19 40 -41 81 l-41 75 27 28 c32 33 43
96 25 139 -18 46 -63 61 -174 61 l-96 0 0 -196z m178 114 c7 -7 12 -24 12 -38
0 -36 -17 -50 -62 -50 l-38 0 0 50 0 50 38 0 c21 0 43 -5 50 -12z"/>
<path d="M4795 3001 c-3 -6 -31 -87 -61 -181 -30 -94 -57 -177 -61 -185 -4
-12 5 -15 40 -15 44 0 44 0 57 45 l13 45 67 0 67 0 13 -45 c12 -45 13 -45 56
-45 30 0 44 4 44 13 0 7 -29 94 -64 193 l-63 179 -51 3 c-28 2 -53 -2 -57 -7z
m80 -151 c10 -33 16 -63 13 -66 -3 -3 -24 -4 -46 -2 l-39 3 20 67 c11 37 23
66 27 63 3 -2 15 -31 25 -65z"/>
<path d="M5130 2815 l0 -195 45 0 45 0 0 75 c0 71 1 75 23 75 17 0 30 -16 62
-75 l40 -75 42 0 c24 0 43 3 43 8 0 4 -18 40 -41 81 l-40 74 26 27 c32 33 43
96 25 140 -20 48 -55 60 -170 60 l-100 0 0 -195z m186 100 c11 -16 11 -25 1
-45 -10 -20 -21 -26 -55 -28 l-42 -3 0 51 0 51 41 -3 c28 -2 46 -9 55 -23z"/>
<path d="M5530 2814 l0 -195 38 3 37 3 5 122 5 122 68 -124 69 -125 49 0 49 0
0 195 0 195 -40 0 -40 0 0 -132 -1 -133 -70 133 -70 132 -50 0 -49 0 0 -196z"/>
<path d="M5980 2815 l0 -195 125 0 125 0 0 35 c0 21 -5 35 -12 36 -7 0 -44 1
-83 2 l-70 2 -3 43 -3 42 75 0 76 0 0 35 0 35 -75 0 -75 0 0 45 0 45 80 0 80
0 0 35 0 35 -120 0 -120 0 0 -195z"/>
<path d="M6340 2815 l0 -195 40 0 40 0 0 195 0 195 -40 0 -40 0 0 -195z"/>
<path d="M6550 2815 l0 -195 45 0 45 0 0 75 c0 71 1 75 23 75 17 0 30 -16 61
-75 l40 -75 43 0 c24 0 43 3 43 8 0 4 -18 40 -40 81 l-39 74 29 34 c52 59 34
159 -31 182 -18 6 -74 11 -125 11 l-94 0 0 -195z m178 113 c7 -7 12 -24 12
-38 0 -36 -17 -50 -62 -50 l-38 0 0 50 0 50 38 0 c21 0 43 -5 50 -12z"/>
<path d="M1695 2227 c-45 -38 -47 -136 -3 -177 39 -36 138 -17 138 26 0 20
-13 17 -28 -6 -15 -25 -73 -27 -96 -4 -33 33 -33 109 1 146 16 18 68 24 89 10
6 -4 13 -15 17 -24 6 -16 27 -26 27 -12 0 11 -23 49 -34 56 -24 16 -85 8 -111
-15z"/>
<path d="M1895 2218 c-24 -28 -27 -38 -23 -87 4 -44 10 -59 32 -78 65 -55 156
-8 156 82 0 51 -20 99 -45 109 -9 3 -34 6 -55 6 -31 0 -43 -6 -65 -32z m119
-4 c33 -33 33 -109 -1 -146 -25 -28 -77 -24 -102 8 -46 59 -13 154 54 154 18
0 41 -7 49 -16z"/>
<path d="M2110 2141 c0 -67 4 -111 10 -111 6 0 10 37 10 91 0 49 4 88 9 85 5
-3 30 -44 57 -91 27 -47 55 -85 62 -85 9 0 12 29 12 110 0 67 -4 110 -10 110
-6 0 -10 -38 -10 -92 l0 -93 -53 90 c-29 49 -60 91 -70 93 -15 3 -17 -8 -17
-107z"/>
<path d="M2310 2240 c0 -5 16 -10 35 -10 l35 0 0 -100 c0 -60 4 -100 10 -100
6 0 10 40 10 100 l0 100 30 0 c17 0 30 5 30 10 0 6 -32 10 -75 10 -43 0 -75
-4 -75 -10z"/>
<path d="M2500 2140 c0 -62 4 -110 9 -110 6 0 11 21 13 47 3 41 6 47 27 48 18
1 30 -9 53 -47 38 -62 56 -62 24 0 -24 47 -24 48 -5 71 44 54 12 101 -69 101
l-52 0 0 -110z m108 78 c31 -31 -6 -78 -60 -78 -26 0 -28 2 -28 45 l0 45 38 0
c21 0 43 -5 50 -12z"/>
<path d="M2745 2238 c-18 -47 -65 -193 -65 -200 0 -21 18 -4 26 25 9 29 13 32
56 35 44 3 46 2 53 -27 6 -29 21 -48 31 -39 2 3 -12 52 -32 111 -23 70 -41
107 -50 107 -8 0 -17 -6 -19 -12z m38 -70 l16 -48 -36 0 c-32 0 -35 2 -29 25
9 36 26 78 30 74 2 -2 10 -25 19 -51z"/>
<path d="M2919 2237 c-27 -21 -39 -54 -39 -107 0 -67 30 -100 90 -100 39 0 80
26 80 50 0 17 -14 11 -28 -10 -18 -29 -85 -28 -106 2 -19 27 -21 87 -4 123 19
43 95 48 113 8 5 -13 13 -23 17 -23 15 0 8 37 -10 53 -22 20 -90 22 -113 4z"/>
<path d="M3070 2240 c0 -5 13 -10 30 -10 l29 0 3 -97 c4 -127 22 -125 26 2 l3
95 29 0 c17 0 30 5 30 10 0 6 -32 10 -75 10 -43 0 -75 -4 -75 -10z"/>
<path d="M3385 2238 c-18 -47 -65 -193 -65 -200 0 -21 18 -4 26 25 9 29 13 32
56 35 44 3 46 2 53 -27 6 -29 21 -48 31 -39 2 3 -12 52 -32 111 -23 70 -41
107 -50 107 -8 0 -17 -6 -19 -12z m38 -70 l16 -48 -36 0 c-32 0 -35 2 -29 25
9 36 26 78 30 74 2 -2 10 -25 19 -51z"/>
<path d="M3540 2141 c0 -135 18 -150 22 -19 l3 93 55 -93 c30 -50 60 -92 67
-92 10 0 13 27 13 110 0 134 -18 149 -22 18 l-3 -93 -51 90 c-72 127 -84 125
-84 -14z"/>
<path d="M3760 2140 l0 -110 40 0 c57 0 108 24 120 55 20 52 12 104 -19 136
-26 25 -37 29 -85 29 l-56 0 0 -110z m129 64 c26 -33 28 -94 3 -124 -11 -13
-33 -23 -60 -27 l-42 -6 0 92 0 91 39 0 c31 0 44 -6 60 -26z"/>
<path d="M4060 2140 c0 -67 4 -110 10 -110 6 0 10 23 10 50 l0 50 45 0 c25 0
45 5 45 10 0 6 -20 10 -45 10 l-45 0 0 40 0 40 50 0 c28 0 50 5 50 10 0 6 -27
10 -60 10 l-60 0 0 -110z"/>
<path d="M4220 2160 c0 -107 14 -130 78 -130 61 0 76 24 80 131 3 76 2 89 -12
89 -13 0 -16 -14 -16 -88 0 -96 -7 -112 -51 -112 -48 0 -59 22 -59 116 0 49
-4 84 -10 84 -6 0 -10 -37 -10 -90z"/>
<path d="M4440 2140 c0 -67 4 -110 10 -110 6 0 10 20 10 45 0 75 50 72 85 -4
10 -23 24 -41 32 -41 9 0 5 14 -14 48 l-27 48 22 22 c48 48 13 102 -68 102
l-50 0 0 -110z m108 55 c4 -34 -18 -55 -60 -55 -27 0 -28 2 -28 46 l0 45 43
-3 c38 -3 42 -6 45 -33z"/>
<path d="M4630 2140 c0 -134 18 -149 22 -17 l3 92 55 -92 c30 -51 60 -93 67
-93 10 0 13 28 13 110 0 67 -4 110 -10 110 -6 0 -10 -38 -10 -92 l0 -93 -56
93 c-30 50 -62 92 -70 92 -11 0 -14 -21 -14 -110z"/>
<path d="M4854 2237 c-10 -28 1 -200 14 -205 9 -3 12 23 12 107 0 70 -4 111
-10 111 -6 0 -13 -6 -16 -13z"/>
<path d="M4915 2240 c3 -5 19 -10 36 -10 l29 0 0 -100 c0 -60 4 -100 10 -100
6 0 10 40 10 100 l0 100 35 0 c19 0 35 5 35 10 0 6 -34 10 -81 10 -51 0 -78
-4 -74 -10z"/>
<path d="M5110 2157 c0 -108 11 -127 73 -127 63 0 77 24 77 130 0 53 -4 90
-10 90 -6 0 -10 -34 -10 -81 0 -98 -9 -119 -53 -119 -50 0 -57 14 -57 112 0
52 -4 88 -10 88 -6 0 -10 -38 -10 -93z"/>
<path d="M5320 2140 c0 -67 4 -110 10 -110 6 0 10 20 10 44 0 71 44 70 85 0
35 -60 51 -56 21 5 -25 48 -25 49 -6 66 11 10 20 30 20 45 0 41 -28 60 -88 60
l-52 0 0 -110z m110 75 c22 -26 4 -63 -34 -71 -46 -8 -56 0 -56 47 0 39 0 39
39 39 22 0 44 -6 51 -15z"/>
<path d="M5510 2140 l0 -110 65 0 c37 0 65 4 65 10 0 6 -22 10 -50 10 l-50 0
0 40 0 40 45 0 c25 0 45 5 45 10 0 6 -20 10 -45 10 l-45 0 0 40 0 40 50 0 c28
0 50 5 50 10 0 6 -28 10 -65 10 l-65 0 0 -110z"/>
<path d="M5767 2232 c-36 -39 -14 -79 55 -101 65 -21 59 -81 -8 -81 -23 0 -37
6 -44 20 -11 21 -30 27 -30 10 0 -22 41 -50 73 -50 45 0 77 25 77 59 0 33 -11
43 -63 62 -47 17 -61 32 -52 59 9 29 68 28 89 -2 21 -30 33 -15 12 17 -21 31
-83 35 -109 7z"/>
<path d="M5972 2243 c-21 -8 -42 -60 -42 -103 0 -71 31 -109 90 -110 46 0 76
21 90 66 27 82 -13 155 -84 153 -23 0 -47 -3 -54 -6z m101 -31 c24 -26 32 -77
17 -112 -35 -83 -140 -55 -140 37 0 35 15 73 34 85 21 14 73 8 89 -10z"/>
<path d="M6170 2140 l0 -110 60 0 c33 0 60 4 60 10 0 6 -22 10 -50 10 l-50 0
0 100 c0 60 -4 100 -10 100 -6 0 -10 -43 -10 -110z"/>
<path d="M6330 2156 c0 -87 2 -96 22 -110 12 -9 36 -16 53 -16 17 0 41 7 53
16 20 14 22 23 22 110 0 56 -4 94 -10 94 -6 0 -10 -36 -10 -88 0 -98 -7 -112
-55 -112 -48 0 -55 14 -55 112 0 52 -4 88 -10 88 -6 0 -10 -38 -10 -94z"/>
<path d="M6520 2240 c0 -5 14 -10 30 -10 l30 0 0 -100 c0 -60 4 -100 10 -100
11 0 12 3 14 115 l1 80 33 3 c62 6 31 22 -43 22 -43 0 -75 -4 -75 -10z"/>
<path d="M6710 2140 c0 -67 4 -110 10 -110 6 0 10 43 10 110 0 67 -4 110 -10
110 -6 0 -10 -43 -10 -110z"/>
<path d="M6815 2226 c-30 -30 -40 -84 -25 -130 23 -71 98 -89 151 -37 25 26
29 37 29 86 0 46 -4 60 -25 80 -33 34 -96 35 -130 1z m119 -18 c23 -32 20
-100 -5 -132 -29 -37 -82 -36 -106 1 -23 35 -22 106 2 133 26 29 89 27 109 -2z"/>
<path d="M7024 2237 c-9 -24 1 -202 11 -200 6 2 11 42 13 90 l3 88 52 -89 c29
-49 58 -91 65 -94 9 -3 12 24 12 107 0 132 -18 151 -22 24 l-3 -88 -50 87
c-48 84 -70 104 -81 75z"/>
<path d="M7257 2232 c-36 -39 -14 -79 55 -101 65 -21 59 -81 -8 -81 -23 0 -37
6 -44 20 -11 21 -30 27 -30 10 0 -22 41 -50 73 -50 45 0 77 25 77 59 0 33 -11
43 -63 62 -47 17 -61 32 -52 59 9 29 68 28 89 -2 21 -30 33 -15 12 17 -21 31
-83 35 -109 7z"/>
</g>
</svg>
