<svg xmlns="http://www.w3.org/2000/svg" viewBox="281 189 342 364" fill="#ffffff" role="img" aria-label="Hélder Carneiro">
  <g transform="translate(0,897) scale(0.1,-0.1)" fill="#ffffff" stroke="none">
    <path d="M2870 5260 l0 -1760 1180 0 1180 0 0 590 0 590 -269 0 -268 0 -5
-360 c-2 -198 -6 -361 -9 -362 -2 -2 -289 -2 -636 0 l-633 3 0 1304 0 1305
640 0 640 0 0 -360 0 -360 270 0 270 0 0 585 0 585 -1180 0 -1180 0 0 -1760z"/>
    <path d="M5600 6285 l0 -735 -630 0 -630 0 0 350 0 350 -262 -2 -263 -3 -3
-977 -2 -978 265 0 265 0 2 348 3 347 625 0 625 0 3 -742 2 -743 285 0 285 0
0 1760 0 1760 -285 0 -285 0 0 -735z"/>
  </g>
</svg>
